%TF.GenerationSoftware,KiCad,Pcbnew,(5.1.7)-1*%
%TF.CreationDate,2020-11-28T16:53:41+05:30*%
%TF.ProjectId,usbasp_v1,75736261-7370-45f7-9631-2e6b69636164,v1*%
%TF.SameCoordinates,Original*%
%TF.FileFunction,Soldermask,Top*%
%TF.FilePolarity,Negative*%
%FSLAX46Y46*%
G04 Gerber Fmt 4.6, Leading zero omitted, Abs format (unit mm)*
G04 Created by KiCad (PCBNEW (5.1.7)-1) date 2020-11-28 16:53:41*
%MOMM*%
%LPD*%
G01*
G04 APERTURE LIST*
%ADD10C,1.800000*%
%ADD11R,1.800000X1.800000*%
%ADD12O,1.600000X1.600000*%
%ADD13C,1.600000*%
%ADD14C,1.700000*%
%ADD15O,1.700000X1.700000*%
%ADD16R,1.700000X1.700000*%
%ADD17C,1.200000*%
%ADD18R,1.200000X1.200000*%
%ADD19O,1.600000X2.400000*%
%ADD20R,1.600000X2.400000*%
%ADD21C,1.500000*%
%ADD22C,3.500000*%
%ADD23O,1.800000X1.800000*%
G04 APERTURE END LIST*
D10*
%TO.C,D3*%
X141528800Y-81280000D03*
D11*
X138988800Y-81280000D03*
%TD*%
D12*
%TO.C,R5*%
X122732800Y-104089200D03*
D13*
X130352800Y-104089200D03*
%TD*%
D12*
%TO.C,R3*%
X120497600Y-100279200D03*
D13*
X120497600Y-92659200D03*
%TD*%
D12*
%TO.C,R2*%
X147726400Y-103276400D03*
D13*
X155346400Y-103276400D03*
%TD*%
D14*
%TO.C,J1*%
X168661600Y-94589600D03*
X168661600Y-92049600D03*
X168661600Y-89509600D03*
X168661600Y-86969600D03*
X168661600Y-84429600D03*
X166121600Y-94589600D03*
X166121600Y-92049600D03*
X166121600Y-89509600D03*
X166121600Y-86969600D03*
G36*
G01*
X165271600Y-85029600D02*
X165271600Y-83829600D01*
G75*
G02*
X165521600Y-83579600I250000J0D01*
G01*
X166721600Y-83579600D01*
G75*
G02*
X166971600Y-83829600I0J-250000D01*
G01*
X166971600Y-85029600D01*
G75*
G02*
X166721600Y-85279600I-250000J0D01*
G01*
X165521600Y-85279600D01*
G75*
G02*
X165271600Y-85029600I0J250000D01*
G01*
G37*
%TD*%
D15*
%TO.C,JP2*%
X155244800Y-77978000D03*
D16*
X155244800Y-80518000D03*
%TD*%
D17*
%TO.C,C3*%
X115393600Y-78028800D03*
D18*
X113893600Y-78028800D03*
%TD*%
D19*
%TO.C,U1*%
X124053600Y-85699600D03*
X157073600Y-93319600D03*
X126593600Y-85699600D03*
X154533600Y-93319600D03*
X129133600Y-85699600D03*
X151993600Y-93319600D03*
X131673600Y-85699600D03*
X149453600Y-93319600D03*
X134213600Y-85699600D03*
X146913600Y-93319600D03*
X136753600Y-85699600D03*
X144373600Y-93319600D03*
X139293600Y-85699600D03*
X141833600Y-93319600D03*
X141833600Y-85699600D03*
X139293600Y-93319600D03*
X144373600Y-85699600D03*
X136753600Y-93319600D03*
X146913600Y-85699600D03*
X134213600Y-93319600D03*
X149453600Y-85699600D03*
X131673600Y-93319600D03*
X151993600Y-85699600D03*
X129133600Y-93319600D03*
X154533600Y-85699600D03*
X126593600Y-93319600D03*
X157073600Y-85699600D03*
D20*
X124053600Y-93319600D03*
%TD*%
D21*
%TO.C,Y1*%
X147882000Y-98044000D03*
X143002000Y-98044000D03*
%TD*%
D12*
%TO.C,R7*%
X144221200Y-77571600D03*
D13*
X151841200Y-77571600D03*
%TD*%
D12*
%TO.C,R6*%
X144170400Y-81026000D03*
D13*
X151790400Y-81026000D03*
%TD*%
D12*
%TO.C,R4*%
X120497600Y-78486000D03*
D13*
X120497600Y-86106000D03*
%TD*%
D12*
%TO.C,R1*%
X126949200Y-96672400D03*
D13*
X134569200Y-96672400D03*
%TD*%
D15*
%TO.C,JP3*%
X130606800Y-78232000D03*
D16*
X128066800Y-78232000D03*
%TD*%
D15*
%TO.C,JP1*%
X123901200Y-96977200D03*
D16*
X123901200Y-99517200D03*
%TD*%
D22*
%TO.C,J2*%
X112028400Y-83001600D03*
X112028400Y-95041600D03*
D14*
X114738400Y-90271600D03*
X114738400Y-87771600D03*
X116738400Y-87771600D03*
D16*
X116738400Y-90271600D03*
%TD*%
D10*
%TO.C,D4*%
X136499600Y-81280000D03*
D11*
X133959600Y-81280000D03*
%TD*%
D23*
%TO.C,D2*%
X131267200Y-81940400D03*
D11*
X123647200Y-81940400D03*
%TD*%
D23*
%TO.C,D1*%
X109931200Y-99415600D03*
D11*
X117551200Y-99415600D03*
%TD*%
D13*
%TO.C,C2*%
X153314400Y-96763200D03*
X153314400Y-99263200D03*
%TD*%
%TO.C,C1*%
X137668000Y-99782000D03*
X137668000Y-97282000D03*
%TD*%
M02*
