%TF.GenerationSoftware,KiCad,Pcbnew,(5.1.7)-1*%
%TF.CreationDate,2020-11-28T16:53:41+05:30*%
%TF.ProjectId,usbasp_v1,75736261-7370-45f7-9631-2e6b69636164,v1*%
%TF.SameCoordinates,Original*%
%TF.FileFunction,Copper,L1,Top*%
%TF.FilePolarity,Positive*%
%FSLAX46Y46*%
G04 Gerber Fmt 4.6, Leading zero omitted, Abs format (unit mm)*
G04 Created by KiCad (PCBNEW (5.1.7)-1) date 2020-11-28 16:53:41*
%MOMM*%
%LPD*%
G01*
G04 APERTURE LIST*
%TA.AperFunction,ComponentPad*%
%ADD10C,1.800000*%
%TD*%
%TA.AperFunction,ComponentPad*%
%ADD11R,1.800000X1.800000*%
%TD*%
%TA.AperFunction,ComponentPad*%
%ADD12O,1.600000X1.600000*%
%TD*%
%TA.AperFunction,ComponentPad*%
%ADD13C,1.600000*%
%TD*%
%TA.AperFunction,ComponentPad*%
%ADD14C,1.700000*%
%TD*%
%TA.AperFunction,ComponentPad*%
%ADD15O,1.700000X1.700000*%
%TD*%
%TA.AperFunction,ComponentPad*%
%ADD16R,1.700000X1.700000*%
%TD*%
%TA.AperFunction,ComponentPad*%
%ADD17C,1.200000*%
%TD*%
%TA.AperFunction,ComponentPad*%
%ADD18R,1.200000X1.200000*%
%TD*%
%TA.AperFunction,ComponentPad*%
%ADD19O,1.600000X2.400000*%
%TD*%
%TA.AperFunction,ComponentPad*%
%ADD20R,1.600000X2.400000*%
%TD*%
%TA.AperFunction,ComponentPad*%
%ADD21C,1.500000*%
%TD*%
%TA.AperFunction,ComponentPad*%
%ADD22C,3.500000*%
%TD*%
%TA.AperFunction,ComponentPad*%
%ADD23O,1.800000X1.800000*%
%TD*%
%TA.AperFunction,ViaPad*%
%ADD24C,1.600000*%
%TD*%
%TA.AperFunction,Conductor*%
%ADD25C,0.800000*%
%TD*%
G04 APERTURE END LIST*
D10*
%TO.P,D3,2*%
%TO.N,Net-(D3-Pad2)*%
X141528800Y-81280000D03*
D11*
%TO.P,D3,1*%
%TO.N,Net-(D3-Pad1)*%
X138988800Y-81280000D03*
%TD*%
D12*
%TO.P,R5,2*%
%TO.N,Net-(D1-Pad1)*%
X122732800Y-104089200D03*
D13*
%TO.P,R5,1*%
%TO.N,+5V*%
X130352800Y-104089200D03*
%TD*%
D12*
%TO.P,R3,2*%
%TO.N,Net-(R3-Pad2)*%
X120497600Y-100279200D03*
D13*
%TO.P,R3,1*%
%TO.N,Net-(D1-Pad1)*%
X120497600Y-92659200D03*
%TD*%
D12*
%TO.P,R2,2*%
%TO.N,Net-(R2-Pad2)*%
X147726400Y-103276400D03*
D13*
%TO.P,R2,1*%
%TO.N,Net-(J1-Pad4)*%
X155346400Y-103276400D03*
%TD*%
D14*
%TO.P,J1,10*%
%TO.N,GND*%
X168661600Y-94589600D03*
%TO.P,J1,8*%
X168661600Y-92049600D03*
%TO.P,J1,6*%
%TO.N,Net-(J1-Pad6)*%
X168661600Y-89509600D03*
%TO.P,J1,4*%
%TO.N,Net-(J1-Pad4)*%
X168661600Y-86969600D03*
%TO.P,J1,2*%
%TO.N,Net-(J1-Pad2)*%
X168661600Y-84429600D03*
%TO.P,J1,9*%
%TO.N,/MISO*%
X166121600Y-94589600D03*
%TO.P,J1,7*%
%TO.N,/SCK*%
X166121600Y-92049600D03*
%TO.P,J1,5*%
%TO.N,Net-(J1-Pad5)*%
X166121600Y-89509600D03*
%TO.P,J1,3*%
%TO.N,Net-(J1-Pad3)*%
X166121600Y-86969600D03*
%TO.P,J1,1*%
%TO.N,/MOSI*%
%TA.AperFunction,ComponentPad*%
G36*
G01*
X165271600Y-85029600D02*
X165271600Y-83829600D01*
G75*
G02*
X165521600Y-83579600I250000J0D01*
G01*
X166721600Y-83579600D01*
G75*
G02*
X166971600Y-83829600I0J-250000D01*
G01*
X166971600Y-85029600D01*
G75*
G02*
X166721600Y-85279600I-250000J0D01*
G01*
X165521600Y-85279600D01*
G75*
G02*
X165271600Y-85029600I0J250000D01*
G01*
G37*
%TD.AperFunction*%
%TD*%
D15*
%TO.P,JP2,2*%
%TO.N,+5V*%
X155244800Y-77978000D03*
D16*
%TO.P,JP2,1*%
%TO.N,Net-(J1-Pad2)*%
X155244800Y-80518000D03*
%TD*%
D17*
%TO.P,C3,2*%
%TO.N,GND*%
X115393600Y-78028800D03*
D18*
%TO.P,C3,1*%
%TO.N,+5V*%
X113893600Y-78028800D03*
%TD*%
D19*
%TO.P,U1,28*%
%TO.N,Net-(U1-Pad28)*%
X124053600Y-85699600D03*
%TO.P,U1,14*%
%TO.N,Net-(R3-Pad2)*%
X157073600Y-93319600D03*
%TO.P,U1,27*%
%TO.N,Net-(U1-Pad27)*%
X126593600Y-85699600D03*
%TO.P,U1,13*%
%TO.N,Net-(U1-Pad13)*%
X154533600Y-93319600D03*
%TO.P,U1,26*%
%TO.N,Net-(U1-Pad26)*%
X129133600Y-85699600D03*
%TO.P,U1,12*%
%TO.N,Net-(U1-Pad12)*%
X151993600Y-93319600D03*
%TO.P,U1,25*%
%TO.N,Net-(JP3-Pad1)*%
X131673600Y-85699600D03*
%TO.P,U1,11*%
%TO.N,Net-(U1-Pad11)*%
X149453600Y-93319600D03*
%TO.P,U1,24*%
%TO.N,Net-(D4-Pad1)*%
X134213600Y-85699600D03*
%TO.P,U1,10*%
%TO.N,Net-(C2-Pad2)*%
X146913600Y-93319600D03*
%TO.P,U1,23*%
%TO.N,Net-(D3-Pad1)*%
X136753600Y-85699600D03*
%TO.P,U1,9*%
%TO.N,Net-(C1-Pad2)*%
X144373600Y-93319600D03*
%TO.P,U1,22*%
%TO.N,GND*%
X139293600Y-85699600D03*
%TO.P,U1,8*%
X141833600Y-93319600D03*
%TO.P,U1,21*%
%TO.N,Net-(U1-Pad21)*%
X141833600Y-85699600D03*
%TO.P,U1,7*%
%TO.N,+5V*%
X139293600Y-93319600D03*
%TO.P,U1,20*%
X144373600Y-85699600D03*
%TO.P,U1,6*%
%TO.N,Net-(U1-Pad6)*%
X136753600Y-93319600D03*
%TO.P,U1,19*%
%TO.N,/SCK*%
X146913600Y-85699600D03*
%TO.P,U1,5*%
%TO.N,Net-(U1-Pad5)*%
X134213600Y-93319600D03*
%TO.P,U1,18*%
%TO.N,/MISO*%
X149453600Y-85699600D03*
%TO.P,U1,4*%
%TO.N,Net-(R4-Pad2)*%
X131673600Y-93319600D03*
%TO.P,U1,17*%
%TO.N,/MOSI*%
X151993600Y-85699600D03*
%TO.P,U1,3*%
%TO.N,Net-(R2-Pad2)*%
X129133600Y-93319600D03*
%TO.P,U1,16*%
%TO.N,Net-(J1-Pad5)*%
X154533600Y-85699600D03*
%TO.P,U1,2*%
%TO.N,Net-(J1-Pad6)*%
X126593600Y-93319600D03*
%TO.P,U1,15*%
%TO.N,Net-(R4-Pad2)*%
X157073600Y-85699600D03*
D20*
%TO.P,U1,1*%
%TO.N,Net-(JP1-Pad2)*%
X124053600Y-93319600D03*
%TD*%
D21*
%TO.P,Y1,2*%
%TO.N,Net-(C2-Pad2)*%
X147882000Y-98044000D03*
%TO.P,Y1,1*%
%TO.N,Net-(C1-Pad2)*%
X143002000Y-98044000D03*
%TD*%
D12*
%TO.P,R7,2*%
%TO.N,Net-(D4-Pad2)*%
X144221200Y-77571600D03*
D13*
%TO.P,R7,1*%
%TO.N,+5V*%
X151841200Y-77571600D03*
%TD*%
D12*
%TO.P,R6,2*%
%TO.N,Net-(D3-Pad2)*%
X144170400Y-81026000D03*
D13*
%TO.P,R6,1*%
%TO.N,+5V*%
X151790400Y-81026000D03*
%TD*%
D12*
%TO.P,R4,2*%
%TO.N,Net-(R4-Pad2)*%
X120497600Y-78486000D03*
D13*
%TO.P,R4,1*%
%TO.N,Net-(D2-Pad1)*%
X120497600Y-86106000D03*
%TD*%
D12*
%TO.P,R1,2*%
%TO.N,Net-(JP1-Pad2)*%
X126949200Y-96672400D03*
D13*
%TO.P,R1,1*%
%TO.N,+5V*%
X134569200Y-96672400D03*
%TD*%
D15*
%TO.P,JP3,2*%
%TO.N,GND*%
X130606800Y-78232000D03*
D16*
%TO.P,JP3,1*%
%TO.N,Net-(JP3-Pad1)*%
X128066800Y-78232000D03*
%TD*%
D15*
%TO.P,JP1,2*%
%TO.N,Net-(JP1-Pad2)*%
X123901200Y-96977200D03*
D16*
%TO.P,JP1,1*%
%TO.N,/SCK*%
X123901200Y-99517200D03*
%TD*%
D22*
%TO.P,J2,5*%
%TO.N,Net-(J2-Pad5)*%
X112028400Y-83001600D03*
X112028400Y-95041600D03*
D14*
%TO.P,J2,4*%
%TO.N,GND*%
X114738400Y-90271600D03*
%TO.P,J2,3*%
%TO.N,Net-(D2-Pad1)*%
X114738400Y-87771600D03*
%TO.P,J2,2*%
%TO.N,Net-(D1-Pad1)*%
X116738400Y-87771600D03*
D16*
%TO.P,J2,1*%
%TO.N,+5V*%
X116738400Y-90271600D03*
%TD*%
D10*
%TO.P,D4,2*%
%TO.N,Net-(D4-Pad2)*%
X136499600Y-81280000D03*
D11*
%TO.P,D4,1*%
%TO.N,Net-(D4-Pad1)*%
X133959600Y-81280000D03*
%TD*%
D23*
%TO.P,D2,2*%
%TO.N,GND*%
X131267200Y-81940400D03*
D11*
%TO.P,D2,1*%
%TO.N,Net-(D2-Pad1)*%
X123647200Y-81940400D03*
%TD*%
D23*
%TO.P,D1,2*%
%TO.N,GND*%
X109931200Y-99415600D03*
D11*
%TO.P,D1,1*%
%TO.N,Net-(D1-Pad1)*%
X117551200Y-99415600D03*
%TD*%
D13*
%TO.P,C2,2*%
%TO.N,Net-(C2-Pad2)*%
X153314400Y-96763200D03*
%TO.P,C2,1*%
%TO.N,GND*%
X153314400Y-99263200D03*
%TD*%
%TO.P,C1,2*%
%TO.N,Net-(C1-Pad2)*%
X137668000Y-99782000D03*
%TO.P,C1,1*%
%TO.N,GND*%
X137668000Y-97282000D03*
%TD*%
D24*
%TO.N,GND*%
X117348000Y-76352400D03*
X124968000Y-76352400D03*
%TO.N,+5V*%
X138887200Y-91033600D03*
X143764000Y-90982800D03*
%TO.N,/MISO*%
X161137600Y-96723200D03*
X161086800Y-89509600D03*
%TO.N,/SCK*%
X157632400Y-106070400D03*
X157734000Y-96672400D03*
%TO.N,Net-(R3-Pad2)*%
X131114800Y-89052400D03*
X145389600Y-88798400D03*
%TO.N,Net-(R4-Pad2)*%
X160883600Y-85699600D03*
X160782000Y-75946000D03*
%TD*%
D25*
%TO.N,GND*%
X117348000Y-76352400D02*
X124968000Y-76352400D01*
%TO.N,+5V*%
X143713200Y-91033600D02*
X143764000Y-90982800D01*
X138887200Y-91033600D02*
X143713200Y-91033600D01*
%TO.N,/MISO*%
X161137600Y-96723200D02*
X161137600Y-89560400D01*
X161137600Y-89560400D02*
X161086800Y-89509600D01*
%TO.N,/SCK*%
X157632400Y-96774000D02*
X157734000Y-96672400D01*
X157632400Y-106070400D02*
X157632400Y-96774000D01*
%TO.N,Net-(R3-Pad2)*%
X131114800Y-89052400D02*
X145135600Y-89052400D01*
X145135600Y-89052400D02*
X145389600Y-88798400D01*
%TO.N,Net-(R4-Pad2)*%
X160883600Y-76047600D02*
X160782000Y-75946000D01*
X160883600Y-85699600D02*
X160883600Y-76047600D01*
%TD*%
M02*
