M48
; DRILL file {KiCad (5.1.7)-1} date 11/28/20 16:53:37
; FORMAT={-:-/ absolute / inch / decimal}
; #@! TF.CreationDate,2020-11-28T16:53:37+05:30
; #@! TF.GenerationSoftware,Kicad,Pcbnew,(5.1.7)-1
; #@! TF.FileFunction,Plated,1,2,PTH
FMAT,2
INCH
T1C0.0157
T2C0.0236
T3C0.0315
T4C0.0354
T5C0.0362
T6C0.0394
T7C0.0917
%
G90
G05
T1
X4.62Y-3.006
X4.92Y-3.006
X5.162Y-3.506
X5.468Y-3.584
X5.66Y-3.582
X5.724Y-3.496
X6.206Y-4.176
X6.21Y-3.806
X6.33Y-2.99
X6.334Y-3.374
X6.342Y-3.524
X6.344Y-3.808
T2
X4.484Y-3.072
X4.5431Y-3.072
T3
X4.744Y-3.09
X4.744Y-3.39
X4.832Y-4.098
X5.132Y-4.098
X6.036Y-3.8096
X6.036Y-3.908
X5.676Y-3.19
X5.976Y-3.19
X5.63Y-3.86
X5.8221Y-3.86
X4.884Y-3.374
X4.884Y-3.674
X4.984Y-3.374
X4.984Y-3.674
X5.084Y-3.374
X5.084Y-3.674
X5.184Y-3.374
X5.184Y-3.674
X5.284Y-3.374
X5.284Y-3.674
X5.384Y-3.374
X5.384Y-3.674
X5.484Y-3.374
X5.484Y-3.674
X5.584Y-3.374
X5.584Y-3.674
X5.684Y-3.374
X5.684Y-3.674
X5.784Y-3.374
X5.784Y-3.674
X5.884Y-3.374
X5.884Y-3.674
X5.984Y-3.374
X5.984Y-3.674
X6.084Y-3.374
X6.084Y-3.674
X6.184Y-3.374
X6.184Y-3.674
X5.42Y-3.83
X5.42Y-3.9284
X4.998Y-3.806
X5.298Y-3.806
X5.816Y-4.066
X6.116Y-4.066
X4.744Y-3.648
X4.744Y-3.948
X5.678Y-3.054
X5.978Y-3.054
T4
X4.868Y-3.226
X5.168Y-3.226
X5.472Y-3.2
X5.572Y-3.2
X5.274Y-3.2
X5.374Y-3.2
X4.328Y-3.914
X4.628Y-3.914
T5
X4.5173Y-3.4556
X4.5173Y-3.554
X4.596Y-3.4556
X4.596Y-3.554
T6
X5.042Y-3.08
X5.142Y-3.08
X4.878Y-3.818
X4.878Y-3.918
X6.112Y-3.07
X6.112Y-3.17
X6.5402Y-3.324
X6.5402Y-3.424
X6.5402Y-3.524
X6.5402Y-3.624
X6.5402Y-3.724
X6.6402Y-3.324
X6.6402Y-3.424
X6.6402Y-3.524
X6.6402Y-3.624
X6.6402Y-3.724
T7
X4.4106Y-3.2678
X4.4106Y-3.7418
T0
M30
